<?xml version="1.0" encoding="utf-8"?>
<!-- Generator: Adobe Illustrator 24.3.0, SVG Export Plug-In . SVG Version: 6.00 Build 0)  -->
<svg version="1.1" id="Layer_1" xmlns="http://www.w3.org/2000/svg" xmlns:xlink="http://www.w3.org/1999/xlink" x="0px" y="0px"
	 viewBox="0 0 24 24" style="enable-background:new 0 0 24 24;" xml:space="preserve">
<style type="text/css">
	.st0{fill:none;stroke:#FFFFFF;stroke-linecap:round;stroke-linejoin:round;}
</style>
<path class="st0" d="M8.5,4.9h7c1.9,0,3.5,1.6,3.5,3.5v7c0,1.9-1.6,3.5-3.5,3.5h-7c-1.9,0-3.5-1.6-3.5-3.5v-7C5,6.5,6.5,4.9,8.5,4.9
	z"/>
<path class="st0" d="M14.8,11.5c0.2,1.5-0.8,3-2.4,3.2c-1.5,0.2-3-0.8-3.2-2.4c-0.2-1.5,0.8-3,2.4-3.2c0.3,0,0.6,0,0.8,0
	C13.7,9.3,14.6,10.2,14.8,11.5z"/>
<line class="st0" x1="15.9" y1="8" x2="15.9" y2="8"/>
<path class="st0" d="M17.6,22.7H6.2c-2.9,0-5.4-2.4-5.4-5.4v-11C0.8,3.4,3.2,1,6.2,1h11.5C20.6,1,23,3.4,23,6.4v11
	C23,20.3,20.6,22.7,17.6,22.7z"/>
</svg>
